<svg width="46" height="44" viewBox="0 0 46 44" fill="none" xmlns="http://www.w3.org/2000/svg">
<path d="M28.75 11H37.375C37.7562 11 38.1219 11.1449 38.3915 11.4027C38.6611 11.6606 38.8125 12.0103 38.8125 12.375C38.8125 12.7397 38.6611 13.0894 38.3915 13.3473C38.1219 13.6051 37.7562 13.75 37.375 13.75H35.7851L33.6231 32.384C33.4278 34.0657 32.591 35.6195 31.2728 36.7479C29.9547 37.8764 28.2477 38.5002 26.4788 38.5H19.5212C17.7523 38.5002 16.0453 37.8764 14.7272 36.7479C13.409 35.6195 12.5722 34.0657 12.3769 32.384L10.212 13.75H8.625C8.24375 13.75 7.87812 13.6051 7.60853 13.3473C7.33895 13.0894 7.1875 12.7397 7.1875 12.375C7.1875 12.0103 7.33895 11.6606 7.60853 11.4027C7.87812 11.1449 8.24375 11 8.625 11H17.25C17.25 9.54131 17.8558 8.14236 18.9341 7.11091C20.0125 6.07946 21.475 5.5 23 5.5C24.525 5.5 25.9875 6.07946 27.0659 7.11091C28.1442 8.14236 28.75 9.54131 28.75 11V11ZM23 8.25C22.2375 8.25 21.5062 8.53973 20.9671 9.05546C20.4279 9.57118 20.125 10.2707 20.125 11H25.875C25.875 10.2707 25.5721 9.57118 25.0329 9.05546C24.4938 8.53973 23.7625 8.25 23 8.25V8.25ZM18.6875 19.25V30.25C18.6875 30.6147 18.839 30.9644 19.1085 31.2223C19.3781 31.4801 19.7438 31.625 20.125 31.625C20.5062 31.625 20.8719 31.4801 21.1415 31.2223C21.411 30.9644 21.5625 30.6147 21.5625 30.25V19.25C21.5625 18.8853 21.411 18.5356 21.1415 18.2777C20.8719 18.0199 20.5062 17.875 20.125 17.875C19.7438 17.875 19.3781 18.0199 19.1085 18.2777C18.839 18.5356 18.6875 18.8853 18.6875 19.25ZM25.875 17.875C25.4938 17.875 25.1281 18.0199 24.8585 18.2777C24.5889 18.5356 24.4375 18.8853 24.4375 19.25V30.25C24.4375 30.6147 24.5889 30.9644 24.8585 31.2223C25.1281 31.4801 25.4938 31.625 25.875 31.625C26.2562 31.625 26.6219 31.4801 26.8915 31.2223C27.1611 30.9644 27.3125 30.6147 27.3125 30.25V19.25C27.3125 18.8853 27.1611 18.5356 26.8915 18.2777C26.6219 18.0199 26.2562 17.875 25.875 17.875Z" fill="#CD4242"/>
</svg>
