<svg width="542" height="164" viewBox="0 0 542 164" fill="none" xmlns="http://www.w3.org/2000/svg">
<path d="M50.752 69.664C50.752 65.312 51.7333 61.408 53.696 57.952C55.6587 54.4533 58.3253 51.7227 61.696 49.76C65.1093 47.7973 68.8853 46.816 73.024 46.816C77.888 46.816 82.1333 47.9893 85.76 50.336C89.3867 52.6827 92.032 56.0107 93.696 60.32H86.72C85.4827 57.632 83.6907 55.5627 81.344 54.112C79.04 52.6613 76.2667 51.936 73.024 51.936C69.9093 51.936 67.1147 52.6613 64.64 54.112C62.1653 55.5627 60.224 57.632 58.816 60.32C57.408 62.9653 56.704 66.08 56.704 69.664C56.704 73.2053 57.408 76.32 58.816 79.008C60.224 81.6533 62.1653 83.7013 64.64 85.152C67.1147 86.6027 69.9093 87.328 73.024 87.328C76.2667 87.328 79.04 86.624 81.344 85.216C83.6907 83.7653 85.4827 81.696 86.72 79.008H93.696C92.032 83.2747 89.3867 86.5813 85.76 88.928C82.1333 91.232 77.888 92.384 73.024 92.384C68.8853 92.384 65.1093 91.424 61.696 89.504C58.3253 87.5413 55.6587 84.832 53.696 81.376C51.7333 77.92 50.752 74.016 50.752 69.664ZM108.19 44.64V92H102.366V44.64H108.19ZM121.124 51.232C120.014 51.232 119.076 50.848 118.308 50.08C117.54 49.312 117.156 48.3733 117.156 47.264C117.156 46.1547 117.54 45.216 118.308 44.448C119.076 43.68 120.014 43.296 121.124 43.296C122.19 43.296 123.086 43.68 123.812 44.448C124.58 45.216 124.964 46.1547 124.964 47.264C124.964 48.3733 124.58 49.312 123.812 50.08C123.086 50.848 122.19 51.232 121.124 51.232ZM123.94 56.928V92H118.116V56.928H123.94ZM131.69 74.4C131.69 70.7733 132.415 67.616 133.866 64.928C135.316 62.1973 137.322 60.0853 139.882 58.592C142.484 57.0987 145.45 56.352 148.778 56.352C153.087 56.352 156.628 57.3973 159.402 59.488C162.218 61.5787 164.074 64.48 164.97 68.192H158.698C158.1 66.0587 156.927 64.3733 155.178 63.136C153.471 61.8987 151.338 61.28 148.778 61.28C145.45 61.28 142.762 62.432 140.714 64.736C138.666 66.9973 137.642 70.2187 137.642 74.4C137.642 78.624 138.666 81.888 140.714 84.192C142.762 86.496 145.45 87.648 148.778 87.648C151.338 87.648 153.471 87.0507 155.178 85.856C156.884 84.6613 158.058 82.9547 158.698 80.736H164.97C164.031 84.32 162.154 87.2 159.338 89.376C156.522 91.5093 153.002 92.576 148.778 92.576C145.45 92.576 142.484 91.8293 139.882 90.336C137.322 88.8427 135.316 86.7307 133.866 84C132.415 81.2693 131.69 78.0693 131.69 74.4ZM192.325 92L178.565 76.512V92H172.741V44.64H178.565V72.48L192.069 56.928H200.197L183.685 74.4L200.261 92H192.325ZM235.797 86.624L246.677 56.928H252.885L239.125 92H232.341L218.581 56.928H224.853L235.797 86.624ZM261.624 51.232C260.514 51.232 259.576 50.848 258.808 50.08C258.04 49.312 257.656 48.3733 257.656 47.264C257.656 46.1547 258.04 45.216 258.808 44.448C259.576 43.68 260.514 43.296 261.624 43.296C262.69 43.296 263.586 43.68 264.312 44.448C265.08 45.216 265.464 46.1547 265.464 47.264C265.464 48.3733 265.08 49.312 264.312 50.08C263.586 50.848 262.69 51.232 261.624 51.232ZM264.44 56.928V92H258.616V56.928H264.44ZM306.366 73.12C306.366 74.2293 306.302 75.4027 306.174 76.64H278.142C278.355 80.096 279.528 82.8053 281.662 84.768C283.838 86.688 286.462 87.648 289.534 87.648C292.051 87.648 294.142 87.072 295.806 85.92C297.512 84.7253 298.707 83.1467 299.39 81.184H305.662C304.723 84.5547 302.846 87.3067 300.03 89.44C297.214 91.5307 293.715 92.576 289.534 92.576C286.206 92.576 283.219 91.8293 280.574 90.336C277.971 88.8427 275.923 86.7307 274.43 84C272.936 81.2267 272.19 78.0267 272.19 74.4C272.19 70.7733 272.915 67.5947 274.366 64.864C275.816 62.1333 277.843 60.0427 280.446 58.592C283.091 57.0987 286.12 56.352 289.534 56.352C292.862 56.352 295.806 57.0773 298.366 58.528C300.926 59.9787 302.888 61.984 304.254 64.544C305.662 67.0613 306.366 69.92 306.366 73.12ZM300.35 71.904C300.35 69.6853 299.859 67.7867 298.878 66.208C297.896 64.5867 296.552 63.3707 294.846 62.56C293.182 61.7067 291.326 61.28 289.278 61.28C286.334 61.28 283.816 62.2187 281.726 64.096C279.678 65.9733 278.504 68.576 278.206 71.904H300.35ZM360.773 56.928L349.829 92H343.813L335.365 64.16L326.917 92H320.901L309.893 56.928H315.845L323.909 86.368L332.613 56.928H338.565L347.077 86.432L355.013 56.928H360.773ZM409.984 82.08H390.528L386.944 92H380.799L396.928 47.648H403.648L419.712 92H413.568L409.984 82.08ZM408.32 77.344L400.256 54.816L392.192 77.344H408.32ZM432.565 44.64V92H426.741V44.64H432.565ZM448.315 44.64V92H442.491V44.64H448.315Z" fill="white"/>
<g filter="url(#filter0_d_188_69)">
<rect x="2.5" y="2.5" width="518" height="135" rx="7.5" stroke="#C4C4C4" stroke-width="5" shape-rendering="crispEdges"/>
</g>
<defs>
<filter id="filter0_d_188_69" x="0" y="0" width="542" height="164" filterUnits="userSpaceOnUse" color-interpolation-filters="sRGB">
<feFlood flood-opacity="0" result="BackgroundImageFix"/>
<feColorMatrix in="SourceAlpha" type="matrix" values="0 0 0 0 0 0 0 0 0 0 0 0 0 0 0 0 0 0 127 0" result="hardAlpha"/>
<feOffset dx="15" dy="20"/>
<feGaussianBlur stdDeviation="2"/>
<feComposite in2="hardAlpha" operator="out"/>
<feColorMatrix type="matrix" values="0 0 0 0 0 0 0 0 0 0 0 0 0 0 0 0 0 0 0.25 0"/>
<feBlend mode="normal" in2="BackgroundImageFix" result="effect1_dropShadow_188_69"/>
<feBlend mode="normal" in="SourceGraphic" in2="effect1_dropShadow_188_69" result="shape"/>
</filter>
</defs>
</svg>
