<svg width="59" height="50" viewBox="0 0 59 50" fill="none" xmlns="http://www.w3.org/2000/svg">
<rect width="59" height="50" fill="#C4C4C4"/>
<path d="M43.0919 41.1251C42.9148 41.1252 42.7393 41.0934 42.5757 41.0317C42.4122 40.97 42.2636 40.8796 42.1387 40.7656L11.4139 12.7344C11.1626 12.5051 11.0221 12.1946 11.0232 11.8714C11.0243 11.5481 11.1669 11.2385 11.4198 11.0106C11.6726 10.7827 12.0148 10.6553 12.3713 10.6563C12.7277 10.6573 13.0691 10.7866 13.3203 11.0159L44.0443 39.0472C44.2314 39.2179 44.3586 39.435 44.4098 39.6712C44.461 39.9073 44.434 40.1519 44.3321 40.3742C44.2303 40.5965 44.0581 40.7864 43.8374 40.92C43.6167 41.0537 43.3573 41.125 43.0919 41.1251Z" fill="black"/>
<path d="M38.6477 13.0938C34.9448 13.0938 32.3816 14.9843 30.8884 16.5596C30.8411 16.609 30.7826 16.6486 30.717 16.6757C30.6514 16.7029 30.5801 16.7169 30.5079 16.7169C30.4358 16.7169 30.3645 16.7029 30.2989 16.6757C30.2332 16.6486 30.1748 16.609 30.1275 16.5596C28.6342 14.9843 26.0702 13.0938 22.3682 13.0938C21.4864 13.0933 20.6093 13.2098 19.7646 13.4396L42.3674 34.0593C42.6193 33.7973 42.8461 33.5535 43.051 33.3281C46.4104 29.6147 48.0187 25.803 47.9733 21.6738C47.9238 16.9427 43.7388 13.0938 38.6477 13.0938Z" fill="black"/>
<path d="M13.7949 18.3608C13.3081 19.4101 13.0514 20.5353 13.039 21.6736C12.9937 25.8028 14.6036 29.6145 17.9613 33.3279C19.5377 35.0699 22.3957 37.8563 28.9961 41.92C29.4413 42.1963 29.9683 42.3441 30.5078 42.3441C31.0473 42.3441 31.5742 42.1963 32.0195 41.92C33.7286 40.8673 35.1857 39.9015 36.4354 39.0164L13.7949 18.3608Z" fill="black"/>
</svg>
