<svg width="36" height="29" viewBox="0 0 36 29" fill="none" xmlns="http://www.w3.org/2000/svg">
<path d="M30.0214 11.6244L12.1735 26.0057C11.2165 26.7743 10.0164 27.323 8.70534 27.5864L1.85599 28.9642C1.60595 29.0144 1.34401 29.0118 1.09563 28.9564C0.847246 28.901 0.620864 28.7948 0.43848 28.6482C0.256096 28.5015 0.123912 28.3193 0.0547716 28.1192C-0.0143689 27.9192 -0.018114 27.7082 0.0438991 27.5067L1.75399 21.9886C2.08365 20.9308 2.76392 19.965 3.72209 19.1945L21.567 4.81323L30.0214 11.622V11.6244ZM34.2517 1.41006C36.5828 3.29051 36.5828 6.33838 34.2517 8.21882L32.1336 9.92041L23.6821 3.10923L25.7972 1.41006C26.918 0.50721 28.438 0 30.0229 0C31.6079 0 33.1279 0.50721 34.2487 1.41006H34.2517Z" fill="#41873F"/>
</svg>
