<svg width="30" height="28" viewBox="0 0 30 28" fill="none" xmlns="http://www.w3.org/2000/svg">
<path d="M27 24.3246H24V9.12171L15 15.6372L6 9.12171V24.3246H3V3.47494H4.8L15 10.8592L25.2 3.47494H27V24.3246ZM27 0H3C1.335 0 0 1.54635 0 3.47494V24.3246C0 25.2462 0.31607 26.13 0.87868 26.7817C1.44129 27.4334 2.20435 27.7995 3 27.7995H27C27.7956 27.7995 28.5587 27.4334 29.1213 26.7817C29.6839 26.13 30 25.2462 30 24.3246V3.47494C30 2.55333 29.6839 1.66946 29.1213 1.01779C28.5587 0.366108 27.7956 0 27 0V0Z" fill="black"/>
</svg>
