<svg width="48" height="37" viewBox="0 0 48 37" fill="none" xmlns="http://www.w3.org/2000/svg">
<rect x="0.340576" y="0.0639648" width="47" height="36" transform="rotate(0.328728 0.340576 0.0639648)" fill="#C4C4C4"/>
<path d="M33.5333 25.6908L31.0333 25.6765L31.0961 14.7392L23.5693 19.3835L16.0963 14.6531L16.0336 25.5904L13.5336 25.5761L13.6197 10.5763L15.1197 10.5849L23.589 15.9461L32.1194 10.6825L33.6194 10.6911L33.5333 25.6908ZM33.6337 8.1911L13.634 8.07636C12.2465 8.06839 11.1277 9.17449 11.1197 10.562L11.0337 25.5617C11.0299 26.2248 11.2896 26.8621 11.7557 27.3337C12.2219 27.8052 12.8562 28.0722 13.5193 28.076L33.5189 28.1908C34.182 28.1946 34.8194 27.9348 35.2909 27.4687C35.7624 27.0026 36.0294 26.3682 36.0332 25.7052L36.1193 10.7054C36.1231 10.0424 35.8634 9.40499 35.3972 8.93347C34.9311 8.46194 34.2967 8.19491 33.6337 8.1911V8.1911Z" fill="black"/>
</svg>
