<svg width="48" height="37" viewBox="0 0 48 37" fill="none" xmlns="http://www.w3.org/2000/svg">
<rect x="0.206909" y="0.0644531" width="47" height="36" transform="rotate(0.328728 0.206909 0.0644531)" fill="#C4C4C4"/>
<path fill-rule="evenodd" clip-rule="evenodd" d="M9.3635 6.6168C9.36699 6.00748 9.6124 5.4245 10.0457 4.99611C10.4791 4.56773 11.0648 4.32902 11.6741 4.33252L34.5763 4.46392C34.8782 4.46516 35.177 4.52595 35.4554 4.6428C35.7339 4.75965 35.9865 4.93028 36.1989 5.14491C36.4114 5.35954 36.5793 5.61396 36.6933 5.8936C36.8073 6.17324 36.8649 6.47262 36.863 6.77458L36.7316 29.6767C36.7302 29.9787 36.6693 30.2775 36.5523 30.556C36.4353 30.8344 36.2646 31.0871 36.0498 31.2995C35.8351 31.5118 35.5806 31.6798 35.3009 31.7938C35.0212 31.9077 34.7218 31.9654 34.4197 31.9635L11.5164 31.8321C11.2146 31.8303 10.916 31.7692 10.6379 31.652C10.3597 31.5349 10.1074 31.3641 9.89523 31.1494C9.6831 30.9347 9.51535 30.6803 9.40157 30.4008C9.28778 30.1212 9.23019 29.822 9.23209 29.5202L9.3635 6.6168ZM20.2013 14.8666L23.925 14.888L23.9143 16.758C24.458 15.6861 25.8385 14.7265 27.9047 14.7383C31.8659 14.761 32.7923 16.9076 32.7698 20.8363L32.728 28.1137L28.7194 28.0907L28.756 21.7083C28.7688 19.4708 28.2386 18.2053 26.8736 18.1975C24.9799 18.1866 24.1846 19.5433 24.1723 21.682L24.1357 28.0644L20.1258 28.0414L20.2013 14.8666ZM13.2518 27.8307L17.2618 27.8537L17.3374 14.6777L13.3274 14.6547L13.2519 27.8295L13.2518 27.8307ZM17.9358 10.3835C17.9414 10.7269 17.8783 11.068 17.7503 11.3866C17.6223 11.7053 17.432 11.9952 17.1904 12.2393C16.9489 12.4835 16.661 12.6769 16.3437 12.8082C16.0263 12.9396 15.686 13.0062 15.3426 13.0042C14.9992 13.0023 14.6596 12.9317 14.3438 12.7967C14.028 12.6618 13.7424 12.4651 13.5036 12.2182C13.2649 11.9713 13.0779 11.6792 12.9535 11.3591C12.8292 11.039 12.7701 10.6973 12.7796 10.354C12.7983 9.68013 13.0801 9.0404 13.5647 8.57179C14.0493 8.10319 14.6981 7.84295 15.3722 7.84682C16.0462 7.85068 16.692 8.11835 17.1712 8.59249C17.6503 9.06662 17.9248 9.70954 17.9358 10.3835V10.3835Z" fill="black"/>
</svg>
