<svg width="201" height="141" viewBox="0 0 201 141" fill="none" xmlns="http://www.w3.org/2000/svg">
<rect width="201" height="141" fill="#C4C4C4"/>
<g clip-path="url(#clip0_130_69)">
<path d="M104.625 117.726C104.1 117.726 103.611 117.586 103.156 117.341L98.5023 114.579C97.8023 114.194 98.1523 114.054 98.3624 113.985C99.3069 113.67 99.4819 113.6 100.462 113.041C100.567 112.97 100.707 113.006 100.812 113.075L104.38 115.208C104.52 115.278 104.695 115.278 104.8 115.208L118.761 107.131C118.901 107.061 118.971 106.921 118.971 106.746V90.6267C118.971 90.4515 118.901 90.312 118.761 90.2418L104.8 82.1995C104.66 82.1293 104.485 82.1293 104.38 82.1995L90.4199 90.2418C90.28 90.3117 90.2098 90.4866 90.2098 90.6264V106.746C90.2098 106.886 90.28 107.061 90.4199 107.131L94.2337 109.334C96.2981 110.383 97.5926 109.159 97.5926 107.935V92.025C97.5926 91.8154 97.7675 91.6054 98.0124 91.6054H99.7968C100.007 91.6054 100.217 91.7803 100.217 92.025V107.935C100.217 110.697 98.7121 112.306 96.088 112.306C95.2833 112.306 94.6536 112.306 92.869 111.432L89.1953 109.334C88.2856 108.809 87.7258 107.83 87.7258 106.781V90.6615C87.7258 89.6125 88.2856 88.6332 89.1953 88.1089L103.156 80.0314C104.031 79.5419 105.22 79.5419 106.095 80.0314L120.055 88.1089C120.965 88.6332 121.525 89.6125 121.525 90.6615V106.781C121.525 107.83 120.965 108.809 120.055 109.334L106.095 117.411C105.64 117.621 105.115 117.726 104.625 117.726H104.625ZM108.929 106.641C102.806 106.641 101.546 103.844 101.546 101.466C101.546 101.256 101.721 101.047 101.966 101.047H103.786C103.995 101.047 104.17 101.187 104.17 101.396C104.45 103.25 105.255 104.159 108.964 104.159C111.903 104.159 113.163 103.494 113.163 101.921C113.163 101.012 112.813 100.348 108.229 99.8928C104.415 99.508 102.036 98.669 102.036 95.6269C102.036 92.7944 104.416 91.1159 108.404 91.1159C112.882 91.1159 115.087 92.6547 115.367 96.0111C115.367 96.1164 115.332 96.2211 115.262 96.3261C115.192 96.396 115.087 96.4658 114.982 96.4658H113.162C112.988 96.4658 112.813 96.3261 112.778 96.1512C112.358 94.2282 111.273 93.5986 108.404 93.5986C105.185 93.5986 104.8 94.7177 104.8 95.5567C104.8 96.5708 105.255 96.8855 109.594 97.4449C113.897 98.0046 115.927 98.8088 115.927 101.816C115.892 104.893 113.373 106.641 108.929 106.641Z" fill="#539E43"/>
<path d="M61.3093 54.6804C61.3093 54.0511 60.9593 53.4563 60.3996 53.1417L45.5644 44.6098C45.3191 44.4697 45.0394 44.3998 44.7597 44.3647H44.6195C44.3398 44.3647 44.0598 44.4697 43.8149 44.6098L28.9797 53.1417C28.4196 53.4563 28.0699 54.0508 28.0699 54.6804L28.1051 77.6187C28.1051 77.9333 28.28 78.248 28.5598 78.3881C28.8398 78.5629 29.1895 78.5629 29.4347 78.3881L38.2518 73.3528C38.8116 73.0381 39.1615 72.4436 39.1615 71.8143V61.0793C39.1615 60.45 39.5112 59.8555 40.0712 59.5408L43.8149 57.3728C44.0949 57.1979 44.4097 57.1277 44.7246 57.1277C45.0394 57.1277 45.3543 57.1979 45.5995 57.3728L49.3431 59.5408C49.9031 59.8555 50.2528 60.4497 50.2528 61.0793V71.8143C50.2528 72.4436 50.6028 73.0381 51.1625 73.3528L59.9797 78.3881C60.2597 78.5629 60.6093 78.5629 60.8894 78.3881C61.1694 78.248 61.3444 77.9333 61.3444 77.6187L61.3093 54.6804Z" fill="#333333"/>
<path d="M132.616 23.1051C132.337 22.965 131.987 22.965 131.741 23.1051C131.462 23.2799 131.287 23.5595 131.287 23.8741V46.603C131.287 46.8127 131.182 47.0224 130.972 47.1624C130.762 47.2671 130.552 47.2671 130.342 47.1624L126.633 45.0295C126.361 44.8748 126.054 44.7934 125.741 44.7934C125.428 44.7934 125.121 44.8748 124.849 45.0295L110.013 53.5964C109.454 53.9111 109.104 54.5056 109.104 55.1349V72.2337C109.104 72.863 109.454 73.4578 110.013 73.7724L124.849 82.3394C125.121 82.4941 125.428 82.5755 125.741 82.5755C126.054 82.5755 126.361 82.4941 126.633 82.3394L141.468 73.7724C142.028 73.4578 142.378 72.8633 142.378 72.2337V29.6089C142.378 28.9445 142.028 28.3503 141.468 28.0354L132.617 23.1051H132.616ZM131.252 66.6042C131.252 66.779 131.182 66.9188 131.042 66.9887L125.968 69.9258C125.898 69.9604 125.82 69.9783 125.741 69.9783C125.662 69.9783 125.584 69.9604 125.513 69.9258L120.44 66.9887C120.3 66.9188 120.23 66.7439 120.23 66.6042V60.7296C120.23 60.5547 120.3 60.415 120.44 60.3451L125.513 57.4076C125.584 57.3731 125.662 57.3551 125.741 57.3551C125.82 57.3551 125.898 57.3731 125.968 57.4076L131.042 60.3451C131.182 60.4146 131.252 60.5898 131.252 60.7296V66.6042Z" fill="#333333"/>
<path d="M181.985 60.5897C182.545 60.2751 182.86 59.6806 182.86 59.051V54.89C182.86 54.2607 182.51 53.6662 181.985 53.3516L167.255 44.8197C166.983 44.6651 166.676 44.5837 166.363 44.5837C166.05 44.5837 165.743 44.6651 165.471 44.8197L150.636 53.3864C150.075 53.701 149.726 54.2955 149.726 54.9251V72.0239C149.726 72.6532 150.075 73.2477 150.636 73.5624L165.366 81.9544C165.926 82.2691 166.59 82.2691 167.115 81.9544L176.037 76.9896C176.317 76.8496 176.492 76.5349 176.492 76.2203C176.492 75.9056 176.317 75.591 176.037 75.4509L161.132 66.8839C160.852 66.7094 160.677 66.4295 160.677 66.1149V60.7649C160.677 60.4503 160.852 60.1356 161.132 59.9955L165.786 57.338C165.922 57.2523 166.079 57.2068 166.24 57.2068C166.401 57.2068 166.559 57.2523 166.695 57.338L171.349 59.9955C171.629 60.1704 171.804 60.45 171.804 60.7649V64.9609C171.804 65.2756 171.979 65.5902 172.258 65.73C172.538 65.9049 172.888 65.9049 173.168 65.73L181.985 60.5897Z" fill="#333333"/>
<path d="M166.136 59.7858C166.188 59.7516 166.248 59.7334 166.31 59.7334C166.373 59.7334 166.433 59.7516 166.485 59.7858L169.32 61.4292C169.425 61.4988 169.494 61.6038 169.494 61.7439V65.0307C169.494 65.1705 169.425 65.2755 169.32 65.3454L166.485 66.9888C166.433 67.023 166.373 67.0412 166.31 67.0412C166.248 67.0412 166.188 67.023 166.136 66.9888L163.301 65.3454C163.196 65.2755 163.126 65.1705 163.126 65.0307V61.7439C163.126 61.6038 163.196 61.4988 163.301 61.4292L166.136 59.7858Z" fill="#539E43"/>
<mask id="mask0_130_69" style="mask-type:alpha" maskUnits="userSpaceOnUse" x="68" y="44" width="34" height="39">
<path d="M86.1162 44.8898C85.8443 44.7351 85.5368 44.6538 85.224 44.6538C84.9112 44.6538 84.6037 44.7351 84.3319 44.8898L69.6017 53.3863C69.0417 53.7009 68.7268 54.2954 68.7268 54.9247V71.9539C68.7268 72.5832 69.0768 73.1777 69.6017 73.4924L84.3319 81.9894C84.6037 82.1441 84.9112 82.2254 85.224 82.2254C85.5368 82.2254 85.8443 82.1441 86.1162 81.9894L100.847 73.4924C101.406 73.1777 101.722 72.5832 101.722 71.9539V54.925C101.722 54.2957 101.371 53.7012 100.847 53.3866L86.1162 44.8898Z" fill="white"/>
</mask>
<g mask="url(#mask0_130_69)">
<path d="M86.1162 44.8898C85.8443 44.7351 85.5368 44.6538 85.224 44.6538C84.9112 44.6538 84.6037 44.7351 84.3319 44.8898L69.6017 53.3863C69.0417 53.7009 68.7268 54.2954 68.7268 54.9247V71.9539C68.7268 72.5832 69.0768 73.1777 69.6017 73.4924L84.3319 81.9894C84.6037 82.1441 84.9112 82.2254 85.224 82.2254C85.5368 82.2254 85.8443 82.1441 86.1162 81.9894L100.847 73.4924C101.406 73.1777 101.722 72.5832 101.722 71.9539V54.925C101.722 54.2957 101.371 53.7012 100.847 53.3866L86.1162 44.8898Z" fill="url(#paint0_linear_130_69)"/>
<path d="M100.881 53.3865L86.0813 44.8897C85.9359 44.8163 85.7835 44.7577 85.6263 44.7148L69.0416 73.1083C69.179 73.276 69.3449 73.418 69.5318 73.528L84.3318 82.025C84.7517 82.2698 85.2415 82.3397 85.6963 82.1996L101.266 53.7365C101.161 53.5967 101.021 53.4914 100.881 53.3868V53.3865Z" fill="url(#paint1_linear_130_69)"/>
<path fill-rule="evenodd" clip-rule="evenodd" d="M100.916 73.4929C101.336 73.2481 101.651 72.8285 101.791 72.374L85.556 44.68C85.1361 44.6101 84.6811 44.6449 84.2966 44.8897L69.6013 53.3519L85.451 82.2347C85.6815 82.197 85.9054 82.1263 86.1158 82.025L100.916 73.4932L100.916 73.4929Z" fill="url(#paint2_linear_130_69)"/>
<path fill-rule="evenodd" clip-rule="evenodd" d="M100.917 73.4928L86.1513 81.9898C85.9428 82.0961 85.7181 82.1669 85.4865 82.1995L85.7665 82.7241L102.141 73.2483V73.0384L101.721 72.3389C101.651 72.8284 101.336 73.248 100.917 73.4928Z" fill="url(#paint3_linear_130_69)"/>
<path fill-rule="evenodd" clip-rule="evenodd" d="M100.917 73.4928L86.1513 81.9898C85.9428 82.0961 85.7181 82.1669 85.4865 82.1995L85.7665 82.7241L102.141 73.2483V73.0384L101.721 72.3389C101.651 72.8284 101.336 73.248 100.917 73.4928Z" fill="url(#paint4_linear_130_69)"/>
</g>
</g>
<defs>
<linearGradient id="paint0_linear_130_69" x1="91.2252" y1="51.224" x2="75.0937" y2="76.587" gradientUnits="userSpaceOnUse">
<stop stop-color="#41873F"/>
<stop offset="0.3288" stop-color="#418B3D"/>
<stop offset="0.6352" stop-color="#419637"/>
<stop offset="0.9319" stop-color="#3FA92D"/>
<stop offset="1" stop-color="#3FAE2A"/>
</linearGradient>
<linearGradient id="paint1_linear_130_69" x1="82.9876" y1="65.4342" x2="123.412" y2="43.4578" gradientUnits="userSpaceOnUse">
<stop offset="0.1376" stop-color="#41873F"/>
<stop offset="0.4032" stop-color="#54A044"/>
<stop offset="0.7136" stop-color="#66B848"/>
<stop offset="0.9081" stop-color="#6CC04A"/>
</linearGradient>
<linearGradient id="paint2_linear_130_69" x1="68.1885" y1="63.4403" x2="102.274" y2="63.4403" gradientUnits="userSpaceOnUse">
<stop offset="0.09192" stop-color="#6CC04A"/>
<stop offset="0.2864" stop-color="#66B848"/>
<stop offset="0.5968" stop-color="#54A044"/>
<stop offset="0.8624" stop-color="#41873F"/>
</linearGradient>
<linearGradient id="paint3_linear_130_69" x1="68.1888" y1="77.5601" x2="102.274" y2="77.5601" gradientUnits="userSpaceOnUse">
<stop offset="0.09192" stop-color="#6CC04A"/>
<stop offset="0.2864" stop-color="#66B848"/>
<stop offset="0.5968" stop-color="#54A044"/>
<stop offset="0.8624" stop-color="#41873F"/>
</linearGradient>
<linearGradient id="paint4_linear_130_69" x1="107.24" y1="50.4188" x2="98.6148" y2="95.6404" gradientUnits="userSpaceOnUse">
<stop stop-color="#41873F"/>
<stop offset="0.3288" stop-color="#418B3D"/>
<stop offset="0.6352" stop-color="#419637"/>
<stop offset="0.9319" stop-color="#3FA92D"/>
<stop offset="1" stop-color="#3FAE2A"/>
</linearGradient>
<clipPath id="clip0_130_69">
<rect width="155" height="95" fill="white" transform="translate(28 23)"/>
</clipPath>
</defs>
</svg>
