<svg width="48" height="37" viewBox="0 0 48 37" fill="none" xmlns="http://www.w3.org/2000/svg">
<rect x="0.206543" width="47" height="36" transform="rotate(0.328728 0.206543 0)" fill="#C4C4C4"/>
<path d="M28.1159 18.5H31.1353C31.1353 16.6582 30.34 14.8919 28.9244 13.5895C27.5088 12.2872 25.5889 11.5556 23.587 11.5556V14.3333C24.7881 14.3333 25.9401 14.7723 26.7894 15.5537C27.6388 16.3351 28.1159 17.3949 28.1159 18.5ZM34.1546 18.5H37.1739C37.1739 11.5556 31.09 6 23.587 6V8.77778C29.4143 8.77778 34.1546 13.125 34.1546 18.5ZM35.6643 23.3611C33.7772 23.3611 31.9656 23.0833 30.2748 22.5694C29.7464 22.4167 29.1576 22.5278 28.7349 22.9167L25.4136 25.9722C21.1312 23.9629 17.649 20.7593 15.465 16.8194L18.7862 13.7639C19.2089 13.375 19.3297 12.8333 19.1636 12.3472C18.591 10.7473 18.3004 9.07333 18.3031 7.38889C18.3031 7.02053 18.1441 6.66726 17.861 6.4068C17.5779 6.14633 17.1939 6 16.7935 6H11.5097C11.1093 6 10.7253 6.14633 10.4422 6.4068C10.1591 6.66726 10 7.02053 10 7.38889C10 13.6509 12.7039 19.6565 17.5169 24.0845C22.3299 28.5124 28.8577 31 35.6643 31C36.0646 31 36.4486 30.8537 36.7317 30.5932C37.0149 30.3327 37.1739 29.9795 37.1739 29.6111V24.75C37.1739 24.3816 37.0149 24.0284 36.7317 23.7679C36.4486 23.5074 36.0646 23.3611 35.6643 23.3611Z" fill="black"/>
</svg>
