<svg width="30" height="35" viewBox="0 0 30 35" fill="none" xmlns="http://www.w3.org/2000/svg">
<path d="M20 17.2357H23.3333C23.3333 14.6961 22.4554 12.2606 20.8926 10.4649C19.3298 8.66913 17.2101 7.6603 15 7.6603V11.4904C16.3261 11.4904 17.5979 12.0957 18.5355 13.1732C19.4732 14.2506 20 15.7119 20 17.2357ZM26.6667 17.2357H30C30 7.6603 23.2833 0 15 0V3.83015C21.4333 3.83015 26.6667 9.82433 26.6667 17.2357ZM28.3333 23.9384C26.25 23.9384 24.25 23.5554 22.3833 22.8468C21.8 22.6362 21.15 22.7894 20.6833 23.3256L17.0167 27.5388C12.2889 24.7682 8.44451 20.3509 6.03333 14.9184L9.7 10.7053C10.1667 10.169 10.3 9.42217 10.1167 8.75189C9.48442 6.54583 9.16369 4.23767 9.16667 1.91507C9.16667 1.40717 8.99107 0.920058 8.67851 0.560912C8.36595 0.201766 7.94203 0 7.5 0H1.66667C1.22464 0 0.800716 0.201766 0.488155 0.560912C0.175595 0.920058 0 1.40717 0 1.91507C0 10.5495 2.98511 18.8303 8.29864 24.9358C13.6122 31.0413 20.8189 34.4713 28.3333 34.4713C28.7754 34.4713 29.1993 34.2696 29.5118 33.9104C29.8244 33.5513 30 33.0642 30 32.5563V25.8535C30 25.3456 29.8244 24.8585 29.5118 24.4993C29.1993 24.1402 28.7754 23.9384 28.3333 23.9384Z" fill="black"/>
</svg>
