<svg width="201" height="141" viewBox="0 0 201 141" fill="none" xmlns="http://www.w3.org/2000/svg">
<rect width="201" height="141" fill="#C4C4C4"/>
<path d="M148.108 48.4738C146.618 47.9614 145.115 47.4866 143.602 47.05C143.856 46.0084 144.09 44.9793 144.298 43.9683C147.709 27.3669 145.479 13.9925 137.862 9.58896C130.558 5.36747 118.614 9.76934 106.551 20.294C105.362 21.3331 104.2 22.4022 103.065 23.5001C102.305 22.77 101.531 22.0541 100.745 21.3527C88.1026 10.0994 75.4304 5.35651 67.8212 9.77263C60.5242 14.0073 58.3635 26.5802 61.4348 42.3137C61.7403 43.872 62.0853 45.4222 62.4695 46.9629C60.6757 47.4738 58.9448 48.0177 57.2884 48.5966C42.4659 53.7776 33 61.8965 33 70.3181C33 79.016 43.162 87.7403 58.6003 93.0303C59.8519 93.4574 61.114 93.8532 62.3852 94.2172C61.9724 95.8766 61.6058 97.5472 61.286 99.2271C58.358 114.688 60.6445 126.963 67.9218 131.171C75.438 135.517 88.0534 131.051 100.337 120.286C101.333 119.411 102.307 118.511 103.258 117.587C104.487 118.776 105.749 119.93 107.042 121.048C118.941 131.313 130.693 135.457 137.963 131.238C145.472 126.88 147.913 113.693 144.744 97.6482C144.494 96.3912 144.215 95.1405 143.905 93.8971C144.791 93.6339 145.66 93.3631 146.508 93.0813C162.557 87.7507 173 79.1323 173 70.3181C173 61.8658 163.228 53.692 148.108 48.4738ZM144.627 87.3905C143.861 87.6443 143.076 87.8894 142.275 88.1279C140.504 82.5045 138.113 76.5254 135.186 70.3472C137.979 64.3165 140.278 58.4135 142 52.8269C143.432 53.2425 144.822 53.6805 146.162 54.1427C159.117 58.6142 167.019 65.2244 167.019 70.3181C167.019 75.7436 158.485 82.7869 144.627 87.3905ZM138.877 98.8126C140.278 105.907 140.478 112.321 139.55 117.336C138.716 121.842 137.04 124.846 134.966 126.049C130.554 128.61 121.119 125.282 110.943 116.503C109.74 115.464 108.567 114.39 107.423 113.285C111.368 108.96 115.311 103.932 119.159 98.3477C125.927 97.7458 132.321 96.7611 138.119 95.4174C138.405 96.5725 138.658 97.7052 138.877 98.8126ZM80.7291 125.607C76.4186 127.133 72.9853 127.177 70.9099 125.977C66.4939 123.424 64.658 113.567 67.1622 100.346C67.4599 98.7832 67.8007 97.2294 68.1843 95.686C73.9188 96.9579 80.2664 97.8724 87.0504 98.4239C90.9245 103.888 94.9806 108.911 99.0685 113.309C98.1998 114.152 97.3105 114.973 96.4014 115.772C90.9693 120.531 85.5262 123.909 80.7291 125.607ZM60.5352 87.357C53.7085 85.0177 48.0708 81.9777 44.2066 78.6602C40.7339 75.6794 38.9812 72.7194 38.9812 70.3181C38.9812 65.2074 46.5811 58.6887 59.2571 54.2584C60.7955 53.7211 62.4055 53.214 64.0762 52.7381C65.8284 58.4508 68.1263 64.4239 70.8995 70.464C68.0902 76.5933 65.7595 82.6619 63.9903 88.442C62.8299 88.1088 61.6778 87.747 60.5352 87.357ZM67.3044 41.1619C64.6734 27.6822 66.4206 17.5139 70.818 14.9618C75.5015 12.2436 85.8582 16.1191 96.7744 25.8362C97.4862 26.4713 98.1865 27.1192 98.8749 27.7798C94.8073 32.1586 90.7883 37.1438 86.9487 42.5758C80.3643 43.1876 74.0616 44.1701 68.2669 45.4864C67.9099 44.0534 67.5889 42.6116 67.3044 41.1624V41.1619ZM127.694 56.1114C126.325 53.7413 124.906 51.4011 123.437 49.0923C127.904 49.6586 132.183 50.4102 136.202 51.3291C134.996 55.2063 133.492 59.2595 131.722 63.4152C130.428 60.954 129.085 58.5189 127.694 56.1114ZM103.067 32.0648C105.826 35.061 108.589 38.4058 111.306 42.0352C105.793 41.7742 100.272 41.7731 94.7591 42.0319C97.4793 38.436 100.266 35.0955 103.067 32.0648ZM78.2823 56.1526C76.9088 58.5406 75.591 60.9605 74.3301 63.4102C72.5888 59.2693 71.0986 55.1975 69.8818 51.2655C73.8762 50.3697 78.1358 49.6372 82.5742 49.0813C81.0886 51.4042 79.6576 53.7617 78.2823 56.152V56.1526ZM82.7016 91.9815C78.1161 91.4683 73.7925 90.7737 69.7992 89.902C71.0352 85.8998 72.5582 81.7414 74.3372 77.5117C75.6031 79.9632 76.9264 82.3846 78.3059 84.7737C79.7245 87.2299 81.1934 89.6356 82.7016 91.9815ZM103.232 108.994C100.397 105.928 97.5701 102.536 94.8089 98.8878C97.4897 98.993 100.222 99.0467 103 99.0467C105.854 99.0467 108.674 98.9826 111.451 98.8587C108.725 102.573 105.972 105.969 103.232 108.994ZM131.778 77.2956C133.65 81.572 135.227 85.7085 136.479 89.6421C132.42 90.5709 128.038 91.3187 123.42 91.874C124.899 89.5224 126.332 87.1414 127.718 84.7326C129.126 82.2841 130.48 79.8045 131.778 77.2956ZM122.537 81.737C120.416 85.4302 118.177 89.0532 115.821 92.6005C111.554 92.9034 107.278 93.0539 103 93.0517C98.643 93.0517 94.4053 92.9157 90.3245 92.6504C87.9075 89.1113 85.6248 85.4819 83.4815 81.7699H83.482C81.3488 78.0775 79.3562 74.3052 77.5085 70.4612C79.3515 66.6163 81.338 62.8423 83.464 59.1471L83.4634 59.1476C85.5886 55.4515 87.853 51.8376 90.2518 48.3137C94.4152 47.9979 98.6846 47.8335 102.999 47.8335H103C107.335 47.8335 111.609 47.9996 115.772 48.3176C118.146 51.8361 120.396 55.4376 122.517 59.1153C124.65 62.8023 126.663 66.558 128.553 70.3762C126.683 74.2335 124.676 78.0229 122.537 81.737ZM134.875 14.783C139.562 17.4936 141.386 28.4239 138.44 42.7578C138.252 43.6723 138.041 44.6038 137.811 45.5484C132.002 44.2041 125.695 43.2046 119.092 42.5835C115.245 37.0917 111.259 32.0988 107.257 27.7765C108.306 26.763 109.38 25.7759 110.477 24.8159C120.813 15.7989 130.473 12.2386 134.875 14.783ZM103 57.7852C109.904 57.7852 115.502 63.3965 115.502 70.3181C115.502 77.2397 109.904 82.851 103 82.851C96.0957 82.851 90.4984 77.2397 90.4984 70.3181C90.4984 63.3965 96.0957 57.7852 103 57.7852Z" fill="#00D8FF"/>
</svg>
