<svg width="48" height="37" viewBox="0 0 48 37" fill="none" xmlns="http://www.w3.org/2000/svg">
<rect x="0.340454" y="0.0639648" width="47" height="36" transform="rotate(0.328728 0.340454 0.0639648)" fill="#C4C4C4"/>
<path d="M39.1172 9.05762C38.0102 9.54539 36.8181 9.86326 35.5839 10.0115C36.8502 9.27049 37.8321 8.09023 38.2992 6.667C37.1049 7.36604 35.7827 7.85258 34.3901 8.12695C33.2642 6.90635 31.6765 6.19135 29.8697 6.18098C26.4998 6.16165 23.7309 8.85639 23.7117 12.2022C23.7089 12.6822 23.7636 13.1484 23.8615 13.5866C18.7579 13.3032 14.2259 10.8631 11.2211 7.1893C10.6855 8.07565 10.3783 9.11861 10.372 10.2198C10.3599 12.3233 11.4247 14.1929 13.0821 15.2613C12.064 15.2554 11.1191 14.9677 10.2899 14.5394L10.2896 14.5817C10.2728 17.5181 12.381 19.9868 15.1885 20.5535C14.2847 20.7914 13.3372 20.8198 12.4203 20.6364C12.8029 21.8421 13.5596 22.8996 14.5842 23.6601C15.6087 24.4206 16.8495 24.8459 18.1322 24.8763C15.948 26.5585 13.2473 27.4591 10.474 27.4301C9.98646 27.4273 9.49906 27.3962 9.01182 27.337C11.7266 29.0749 14.9617 30.0958 18.432 30.1158C29.732 30.1806 35.9942 20.9834 36.0402 12.9788C36.0417 12.7106 36.0431 12.4565 36.0303 12.1882C37.2398 11.3481 38.2784 10.2811 39.1172 9.05762Z" fill="black"/>
</svg>
