<svg width="48" height="37" viewBox="0 0 48 37" fill="none" xmlns="http://www.w3.org/2000/svg">
<rect x="0.340332" y="0.0620117" width="47" height="36" transform="rotate(0.328728 0.340332 0.0620117)" fill="#C4C4C4"/>
<path d="M32.2653 19.2774C30.8878 19.2695 29.5999 18.6784 28.4317 17.7217L28.7244 16.3783L28.7347 16.3259C29.0016 14.8986 29.8179 12.507 32.3053 12.5213C33.2012 12.5271 34.0582 12.8882 34.688 13.5253C35.3179 14.1624 35.6691 15.0235 35.6646 15.9194C35.6578 16.815 35.2962 17.6715 34.659 18.301C34.0218 18.9304 33.161 19.2816 32.2653 19.2774ZM32.3237 9.10259C29.15 9.08439 26.6745 11.1315 25.655 14.5219C24.1432 12.2207 22.999 9.4616 22.3385 7.13777L18.9186 7.11815L18.8676 16.008C18.8618 16.8522 18.5214 17.6596 17.9212 18.2532C17.3209 18.8468 16.5098 19.1782 15.6656 19.1747C14.8218 19.1682 14.015 18.8273 13.422 18.2269C12.8291 17.6264 12.4985 16.8153 12.5027 15.9715L12.5537 7.08163L9.13376 7.06201L9.08275 15.9519C9.06186 19.5943 12.0072 22.5975 15.6459 22.6184C19.2871 22.6393 22.2666 19.6701 22.2875 16.0276L22.2961 14.5402C22.9494 15.9277 23.7576 17.3348 24.7404 18.5805L22.5928 28.4096L26.0889 28.4296L27.6461 21.301C28.97 22.1573 30.4944 22.7036 32.2456 22.7136C35.9955 22.7351 39.0618 19.6877 39.0833 15.9402C39.1048 12.1903 36.0736 9.12411 32.3237 9.10259Z" fill="black"/>
</svg>
